<mxfile host="app.diagrams.net" modified="2021-11-28T15:39:39.664Z" agent="5.0 (Windows NT 10.0; Win64; x64) AppleWebKit/537.36 (KHTML, like Gecko) Chrome/96.0.4664.45 Safari/537.36" etag="GNZWNMm_IqhxhlF14dz8" version="15.7.1" type="github">
  <diagram id="2i1AgCFSNw8VUDt2Nsr4" name="第 1 页">
    <mxGraphModel dx="1662" dy="754" grid="1" gridSize="10" guides="1" tooltips="1" connect="1" arrows="1" fold="1" page="1" pageScale="1" pageWidth="827" pageHeight="1169" math="0" shadow="0">
      <root>
        <mxCell id="0" />
        <mxCell id="1" parent="0" />
        <mxCell id="EBbauXGMRuYDV_OsrG0C-5" value="管理员" style="shape=umlLifeline;perimeter=lifelinePerimeter;whiteSpace=wrap;html=1;container=1;collapsible=0;recursiveResize=0;outlineConnect=0;" vertex="1" parent="1">
          <mxGeometry x="100" y="400" width="100" height="300" as="geometry" />
        </mxCell>
        <mxCell id="EBbauXGMRuYDV_OsrG0C-6" value="选人控件（前端）" style="shape=umlLifeline;perimeter=lifelinePerimeter;whiteSpace=wrap;html=1;container=1;collapsible=0;recursiveResize=0;outlineConnect=0;" vertex="1" parent="1">
          <mxGeometry x="280" y="400" width="100" height="300" as="geometry" />
        </mxCell>
        <mxCell id="EBbauXGMRuYDV_OsrG0C-8" value="" style="html=1;points=[];perimeter=orthogonalPerimeter;" vertex="1" parent="EBbauXGMRuYDV_OsrG0C-6">
          <mxGeometry x="45" y="70" width="10" height="80" as="geometry" />
        </mxCell>
        <mxCell id="EBbauXGMRuYDV_OsrG0C-10" value="return" style="html=1;verticalAlign=bottom;endArrow=open;dashed=1;endSize=8;exitX=0;exitY=0.95;rounded=0;" edge="1" source="EBbauXGMRuYDV_OsrG0C-8" parent="EBbauXGMRuYDV_OsrG0C-6">
          <mxGeometry relative="1" as="geometry">
            <mxPoint x="-25" y="146" as="targetPoint" />
          </mxGeometry>
        </mxCell>
        <mxCell id="EBbauXGMRuYDV_OsrG0C-7" value="选人控件（后端）" style="shape=umlLifeline;perimeter=lifelinePerimeter;whiteSpace=wrap;html=1;container=1;collapsible=0;recursiveResize=0;outlineConnect=0;" vertex="1" parent="1">
          <mxGeometry x="470" y="400" width="100" height="300" as="geometry" />
        </mxCell>
        <mxCell id="EBbauXGMRuYDV_OsrG0C-11" value="" style="html=1;points=[];perimeter=orthogonalPerimeter;" vertex="1" parent="EBbauXGMRuYDV_OsrG0C-7">
          <mxGeometry x="45" y="70" width="10" height="80" as="geometry" />
        </mxCell>
        <mxCell id="EBbauXGMRuYDV_OsrG0C-13" value="return" style="html=1;verticalAlign=bottom;endArrow=open;dashed=1;endSize=8;exitX=0;exitY=0.95;rounded=0;" edge="1" source="EBbauXGMRuYDV_OsrG0C-11" parent="EBbauXGMRuYDV_OsrG0C-7">
          <mxGeometry relative="1" as="geometry">
            <mxPoint x="-25" y="146" as="targetPoint" />
          </mxGeometry>
        </mxCell>
        <mxCell id="EBbauXGMRuYDV_OsrG0C-9" value="1.选择规则" style="html=1;verticalAlign=bottom;endArrow=block;entryX=0;entryY=0;rounded=0;" edge="1" target="EBbauXGMRuYDV_OsrG0C-8" parent="1" source="EBbauXGMRuYDV_OsrG0C-5">
          <mxGeometry x="0.0313" relative="1" as="geometry">
            <mxPoint x="255" y="470" as="sourcePoint" />
            <mxPoint x="1" as="offset" />
          </mxGeometry>
        </mxCell>
        <mxCell id="EBbauXGMRuYDV_OsrG0C-12" value="dispatch" style="html=1;verticalAlign=bottom;endArrow=block;entryX=0;entryY=0;rounded=0;" edge="1" target="EBbauXGMRuYDV_OsrG0C-11" parent="1" source="EBbauXGMRuYDV_OsrG0C-8">
          <mxGeometry relative="1" as="geometry">
            <mxPoint x="445" y="470" as="sourcePoint" />
          </mxGeometry>
        </mxCell>
      </root>
    </mxGraphModel>
  </diagram>
</mxfile>
